<svg width="21" height="21" viewBox="0 0 21 21" fill="none" xmlns="http://www.w3.org/2000/svg">
<path d="M1.63673 0.904304C1.37199 0.827399 1.0864 0.901934 0.893009 1.0984C0.699617 1.29487 0.6296 1.5816 0.710674 1.8451L3.14295 9.75H11.6587C12.0729 9.75 12.4087 10.0858 12.4087 10.5C12.4087 10.9142 12.0729 11.25 11.6587 11.25H3.14296L0.710766 19.1546C0.629691 19.4181 0.699709 19.7049 0.893104 19.9013C1.0865 20.0978 1.37209 20.1723 1.63683 20.0954C8.33542 18.1494 14.5561 15.0814 20.082 11.1087C20.278 10.9678 20.3942 10.7412 20.3942 10.4998C20.3942 10.2583 20.278 10.0317 20.082 9.89079C14.5561 5.91817 8.33534 2.85021 1.63673 0.904304Z" fill="#FEFDFD"/>
</svg>
